<?xml version="1.0" standalone="no"?>
<!DOCTYPE svg PUBLIC "-//W3C//DTD SVG 20010904//EN"
 "http://www.w3.org/TR/2001/REC-SVG-20010904/DTD/svg10.dtd">
<svg version="1.0" xmlns="http://www.w3.org/2000/svg"
 width="1998.000000pt" height="438.000000pt" viewBox="0 0 1998 438"
 preserveAspectRatio="xMidYMid meet">
<metadata>
Created by potrace 1.16, written by Peter Selinger 2001-2019
</metadata>
<g transform="translate(0.000000,438.000000) scale(0.100000,-0.100000)"
fill="#000000" stroke="none">
<path d="M320 3930 c0 -48 4 -72 13 -74 107 -29 127 -39 160 -76 67 -73 70
-94 77 -585 7 -479 9 -496 70 -620 37 -76 125 -183 193 -234 143 -108 335
-154 642 -154 264 0 487 37 741 124 80 27 152 49 160 49 13 0 15 -56 12 -487
-4 -475 -4 -490 -26 -556 -36 -105 -69 -132 -220 -173 -8 -2 -12 -25 -12 -69
l0 -65 440 0 440 0 0 70 c0 67 -1 70 -23 70 -13 0 -44 7 -70 16 -65 22 -111
77 -137 161 -20 67 -20 82 -18 1198 l3 1130 23 50 c39 85 93 129 175 143 l42
7 3 73 3 72 -438 -2 -438 -3 -3 -67 c-3 -67 -3 -67 25 -73 115 -25 178 -77
208 -171 17 -54 19 -104 23 -590 l3 -531 -103 -40 c-304 -120 -558 -172 -778
-160 -216 12 -327 52 -426 153 -70 70 -119 160 -135 247 -6 36 -9 212 -7 475
3 414 3 417 27 469 30 68 83 116 146 132 28 7 56 15 63 17 9 3 12 23 10 71
l-3 68 -432 3 -433 2 0 -70z"/>
<path d="M3935 2664 c-200 -49 -400 -214 -496 -410 -115 -237 -131 -618 -35
-854 57 -140 178 -260 341 -340 133 -65 227 -84 389 -77 159 6 253 37 391 130
82 55 158 120 201 173 l37 45 -33 34 -32 33 -72 -60 c-140 -118 -280 -183
-418 -194 -155 -13 -307 37 -377 126 -76 96 -124 300 -125 530 l-1 155 513 3
512 2 0 39 c0 69 -29 206 -59 280 -59 145 -165 273 -278 334 -116 62 -317 85
-458 51z m248 -125 c74 -20 147 -110 183 -226 8 -26 17 -87 21 -135 l6 -88
-341 0 -341 0 5 53 c11 101 24 160 48 211 37 78 116 153 192 180 47 17 174 20
227 5z"/>
<path d="M5689 2665 c-166 -31 -266 -91 -388 -230 -100 -114 -153 -257 -171
-460 -5 -60 -10 -407 -10 -770 0 -694 -2 -736 -46 -802 -17 -26 -84 -63 -114
-63 -18 0 -20 -6 -20 -60 l0 -60 358 2 357 3 3 56 3 56 -48 7 c-89 12 -133 53
-159 148 -16 61 -21 648 -5 648 5 0 28 -15 50 -34 55 -46 135 -83 233 -108 68
-17 103 -19 217 -16 121 4 147 8 230 37 52 17 121 48 154 68 173 105 299 290
355 523 67 278 10 581 -143 772 -89 111 -277 230 -430 273 -84 23 -325 29
-426 10z m409 -149 c97 -45 152 -118 200 -266 40 -121 55 -243 55 -440 -1
-334 -48 -507 -165 -603 -100 -82 -202 -113 -343 -104 -130 8 -195 35 -271
112 -66 67 -105 138 -123 223 -17 80 -15 702 3 767 42 159 150 282 285 326 44
15 81 18 176 16 108 -2 126 -6 183 -31z"/>
<path d="M9241 2665 c-199 -45 -329 -134 -452 -313 -167 -240 -212 -549 -123
-832 75 -239 307 -449 569 -515 286 -73 569 9 786 226 147 146 208 291 225
532 11 151 -27 339 -93 472 -73 144 -216 303 -328 362 -104 55 -200 75 -370
79 -105 2 -169 -1 -214 -11z m386 -144 c202 -90 297 -427 253 -896 -14 -140
-32 -210 -80 -311 -47 -97 -113 -163 -193 -191 -80 -28 -282 -25 -359 5 -76
30 -131 88 -178 186 -73 152 -96 311 -87 601 6 198 22 292 67 392 59 130 115
187 223 225 78 28 281 21 354 -11z"/>
<path d="M13081 2665 c-199 -45 -329 -134 -452 -313 -167 -240 -212 -549 -123
-832 75 -239 307 -449 569 -515 286 -73 569 9 786 226 147 146 208 291 225
532 11 151 -27 339 -93 472 -73 144 -216 303 -328 362 -104 55 -200 75 -370
79 -105 2 -169 -1 -214 -11z m386 -144 c202 -90 297 -427 253 -896 -14 -140
-32 -210 -80 -311 -47 -97 -113 -163 -193 -191 -80 -28 -282 -25 -359 5 -76
30 -131 88 -178 186 -73 152 -96 311 -87 601 6 198 22 292 67 392 59 130 115
187 223 225 78 28 281 21 354 -11z"/>
<path d="M16801 2665 c-199 -45 -329 -134 -452 -313 -167 -240 -212 -549 -123
-832 75 -239 307 -449 569 -515 286 -73 569 9 786 226 147 146 208 291 225
532 11 151 -27 339 -93 472 -73 144 -216 303 -328 362 -104 55 -200 75 -370
79 -105 2 -169 -1 -214 -11z m386 -144 c202 -90 297 -427 253 -896 -14 -140
-32 -210 -80 -311 -47 -97 -113 -163 -193 -191 -80 -28 -282 -25 -359 5 -76
30 -131 88 -178 186 -73 152 -96 311 -87 601 6 198 22 292 67 392 59 130 115
187 223 225 78 28 281 21 354 -11z"/>
<path d="M6890 2390 l0 -260 59 0 59 0 17 75 c19 85 53 155 98 203 63 66 199
112 329 112 l59 0 -3 -627 c-3 -586 -4 -631 -22 -670 -20 -47 -62 -78 -122
-91 l-39 -8 -3 -57 -3 -57 351 0 351 0 -3 57 -3 57 -38 8 c-76 16 -114 61
-136 166 -7 36 -11 243 -11 637 l0 585 63 0 c137 -1 278 -50 342 -121 48 -53
71 -107 87 -196 l12 -73 63 0 63 0 0 260 0 260 -785 0 -785 0 0 -260z"/>
<path d="M10470 2591 l0 -59 48 -16 c27 -9 62 -30 78 -46 57 -54 57 -62 61
-594 4 -519 0 -599 -40 -670 -21 -38 -49 -56 -129 -80 -14 -4 -18 -17 -18 -61
l0 -55 350 0 351 0 -3 57 c-3 57 -3 58 -38 64 -91 15 -129 62 -149 189 -7 40
-11 283 -11 633 l0 567 385 0 385 0 0 -566 c0 -582 -5 -675 -40 -745 -24 -47
-42 -60 -98 -74 l-47 -12 -3 -57 -3 -56 346 0 345 0 0 59 0 58 -40 7 c-52 8
-104 55 -126 114 -16 42 -19 95 -22 536 -4 649 -1 668 123 722 l65 28 0 58 0
58 -885 0 -885 0 0 -59z"/>
<path d="M14837 2643 c-4 -3 -7 -30 -7 -58 l0 -52 54 -6 c63 -6 111 -28 128
-60 38 -70 -12 -302 -164 -767 -74 -225 -117 -319 -176 -382 -64 -69 -153 -86
-216 -42 -44 31 -155 6 -201 -46 -31 -34 -28 -115 7 -167 38 -58 95 -83 189
-83 127 0 228 61 313 188 101 152 192 402 366 1001 30 105 36 118 45 109 4 -4
375 -1254 375 -1264 0 -2 108 -4 240 -4 l240 0 0 54 0 54 -57 7 c-75 9 -117
50 -161 156 -17 42 -117 366 -220 720 l-189 644 -280 3 c-153 1 -282 -1 -286
-5z"/>
<path d="M18040 2592 l0 -59 62 -17 c54 -15 70 -26 132 -89 76 -78 449 -583
454 -616 5 -29 -310 -444 -417 -552 -91 -90 -143 -122 -223 -133 l-48 -7 0
-55 0 -54 325 0 325 0 0 54 0 53 -66 11 c-37 6 -75 19 -85 28 -22 19 -26 85
-8 131 13 36 281 392 294 392 9 0 204 -249 268 -342 40 -59 51 -108 33 -151
-17 -41 -35 -52 -98 -61 l-48 -7 0 -54 0 -54 375 0 375 0 0 54 c0 59 2 57 -70
72 -25 5 -54 26 -100 73 -66 67 -530 707 -530 731 0 22 308 426 376 493 48 48
120 85 179 94 l45 6 0 58 0 59 -275 0 -275 0 0 -60 0 -60 30 0 c42 0 70 -31
70 -79 0 -41 3 -36 -175 -294 -33 -48 -65 -86 -72 -84 -17 3 -211 273 -239
332 -42 88 -32 107 64 120 l52 7 0 59 0 59 -365 0 -365 0 0 -58z"/>
</g>
</svg>
