<svg xmlns="http://www.w3.org/2000/svg" viewBox="0 0 150.68 252.72"><defs><style>.cls-1{fill:#2ba052;}.cls-2{fill:#300b54;}</style></defs><title>Asset 2</title><g id="Layer_2" data-name="Layer 2"><g id="Layer_1-2" data-name="Layer 1"><path class="cls-1" d="M133.69,208.33c-.55-.21-1.12-.37-1.69-.53a1.56,1.56,0,0,0,0-2.25c-2.83-3-6.85-3.19-10.74-2.73A105.73,105.73,0,0,0,104,206.55,123.06,123.06,0,0,0,74,220l-.51.11c-3.37.65-6.74,1.25-10.12,1.82-2.84.47-7.06,1.6-9.67-.28.13-.15.25-.3.38-.44,3.67-.83,7.39-2.4,10.33-3.25q11.79-3.44,23.45-7.37t23.1-8.38c7.08-2.74,14.25-5.42,20.43-9.92a1.44,1.44,0,0,0-.13-2.46,10,10,0,0,0-2.6-1.2,1.14,1.14,0,0,0-.5-.47c-6.23-2.69-13.5-1.07-19.94.07-.82.15-1.64.34-2.46.5,4.39-1.7,8.8-3.38,13.19-5.09a1.4,1.4,0,0,0,.51-2.36c-4.66-3.45-10.65-1.27-15.76.22l.22-.07c5.1-1.64,10.85-2.74,13.92-7.53a1.28,1.28,0,0,0-.87-1.82,39.76,39.76,0,0,0-11.19.7c.86-.39,1.72-.76,2.58-1.16a1.15,1.15,0,0,0-.4-2.23c-13.44,0-26.22,4-38.4,9.41-5.78,2.57-11.46,5.37-17.09,8.25-.68.35-1.34.71-2,1.07,2-3.57,7.22-6.08,10.4-8a93.5,93.5,0,0,1,13-6.42,101.42,101.42,0,0,1,26.89-6.67c.65-.07.62-1.07,0-1a95.18,95.18,0,0,0-31.42,7.78A96.88,96.88,0,0,0,56,180.92c-3.49,2.25-7.64,4.57-8.42,9a18.33,18.33,0,0,0-6.15,6.54,1.23,1.23,0,0,0,.84,1.75,27.3,27.3,0,0,0,6.88,0l-.38.23c-4.21,2.77-13.34,6.76-12.15,12.93a1.37,1.37,0,0,0,1.36.95c1.4-.09,2.8-.27,4.19-.48-.44.49-.88,1-1.29,1.48a1.43,1.43,0,0,0,.12,2,8.69,8.69,0,0,0,4.75,2.36c-.3.25-.6.48-.89.73a1.41,1.41,0,0,0,.13,2.41,10.06,10.06,0,0,0,5.12,1,1.12,1.12,0,0,0,.23.79c3.62,4.24,9,3.06,13.9,2.23,1-.16,1.93-.35,2.9-.52-3.11,2-6.25,4.27-8,7a3.68,3.68,0,0,0-.3,4.23l0,0c-1.72,3.83-.53,7.91,4,8.51a14,14,0,0,0,4-.13A3.12,3.12,0,0,0,67.92,246a10.34,10.34,0,0,0-1,2.88,1.53,1.53,0,0,0,1.54,1.81,77.93,77.93,0,0,0,12-.44,1.65,1.65,0,0,0,1.06.94,29.63,29.63,0,0,0,8.92.9,15.62,15.62,0,0,0,10.25-.4,1.47,1.47,0,0,0,.67-2.23c.29-.13.59-.24.88-.38a1.49,1.49,0,0,0-.5-2.68,20.18,20.18,0,0,0-4.6,0,77.23,77.23,0,0,0,12.67-5.71,1.35,1.35,0,0,0,.4-2,146.42,146.42,0,0,0,13.43-6.16c1.12-.58.7-2-.14-2.6a11.89,11.89,0,0,0-5.52-1.85c2.67-1.26,5.33-2.56,8-3.93a1.51,1.51,0,0,0,.18-2.39,15.41,15.41,0,0,0-6.15-2.39l1.85-.74c4.43-1.82,11.39-3.31,12.73-8.63A1.47,1.47,0,0,0,133.69,208.33Zm-23.63-8.78q-9.93,3.85-20,7.33t-20.26,6.57c-3.44,1.05-6.9,2.05-10.36,3,.8-.59,1.62-1.16,2.46-1.72,7-1.86,14.07-3.83,21-6q12.63-4,25-8.56c1.65-.61,3.36-1.2,5.07-1.81ZM123,191.11c-5,3.1-11.27,4.8-16.6,6.76q-10.49,3.84-21.14,7.22c-4.67,1.48-9.38,2.88-14.09,4.23a165.05,165.05,0,0,1,17.29-8.27,170.77,170.77,0,0,1,19.08-6.5q5.24-1.45,10.55-2.55C119.67,191.67,121.33,191.29,123,191.11Zm-7.51-1.52c-1,.25-1.91.49-2.8.7a171.77,171.77,0,0,0-45,17.61c-2.49,1.4-5,2.84-7.38,4.41-1.65.43-3.29.88-5,1.29A129.72,129.72,0,0,1,103.19,192,117.48,117.48,0,0,1,115.46,189.59Zm-.66-7.3q-18.43,7.17-36.91,14.24Q68,200.3,58.16,204q-2.25.85-4.5,1.68c7.36-5,15.91-8.62,23.62-11.94q9.3-4,19-7.1c3-1,6-1.84,9-2.66C108,183.23,111.69,181.81,114.8,182.29Zm-.78-7.77c-3.92,3.56-11.26,4.63-15.82,6.1l-18,5.79L67.3,190.57c2.37-1.25,4.75-2.46,7.17-3.62a198.43,198.43,0,0,1,19.67-8.13C100.58,176.56,107.17,174.45,114,174.52ZM73.1,179.84c9.29-4,18.92-7,28.94-7.84a268.76,268.76,0,0,1-44.11,15C62.93,184.49,68,182,73.1,179.84ZM44.66,195.9a19.09,19.09,0,0,1,5.89-5.05q10.26-2.1,20.29-5c-5.39,2.64-10.66,5.54-15.8,8.65A32.88,32.88,0,0,1,44.66,195.9ZM49,201.49q3.84-2.58,7.81-5c1.52-.44,3.05-.93,4.59-1.42q10.62-3.37,21.24-6.8l5-1.61c-2.8,1-5.59,2.08-8.34,3.21-11.22,4.64-24.11,9.93-33.49,18.3a45,45,0,0,1-6.45,1.19C40.43,206.4,47.06,202.78,49,201.49ZM44,214a44.39,44.39,0,0,1,3.12-3.17,109.59,109.59,0,0,0,14.84-4.89A135.31,135.31,0,0,0,49,215,8,8,0,0,1,44,214Zm4.53,4.93,1.59-1.31a38.8,38.8,0,0,0,4.29-.87c-.66.59-1.31,1.21-1.93,1.85A11.71,11.71,0,0,1,48.51,218.92Zm48.17-6.73a120.6,120.6,0,0,1,16-4.76c4-.89,10.51-3,14.89-1.23l-1.58.5c-11.25-.84-23.64,4.05-33.48,7.94-2.36.93-4.68,1.94-7,3l-2.07.47A119.42,119.42,0,0,1,96.68,212.19Zm-35,25.05a1.06,1.06,0,0,0,.19.06,20.1,20.1,0,0,0,8.65-.64A12.61,12.61,0,0,0,67.32,241a15.08,15.08,0,0,1-2.39.14C61.34,241,60.92,239.2,61.67,237.24Zm8.76,10.42a5.52,5.52,0,0,1,.28-.54c3.73.73,9.27-.18,13-.92-.27.2-.53.44-.79.65A74.9,74.9,0,0,1,70.43,247.66Zm28.66-5.2A71.57,71.57,0,0,1,91,245.14c.73-.38,1.48-.72,2.24-1Q96.17,243.34,99.09,242.46Zm-9.57,6.65c-.69,0-1.38,0-2.08-.06,1.24-.26,2.47-.53,3.69-.85A17.32,17.32,0,0,0,89.52,249.11Zm29.67-17.81a135.6,135.6,0,0,1-17.39,7.17,41.21,41.21,0,0,0-9.43,2.75q-5.2,1.31-10.5,2.17c-2.28.37-4.58.71-6.88.93a15.65,15.65,0,0,1-1.94.18,23.6,23.6,0,0,1,5.37-2.91c1.65-.37,3.31-.75,5-1.16A188.67,188.67,0,0,0,109,232C112.37,231.18,115.94,230.46,119.19,231.3Zm2.61-8.49c-4.49,2.28-9.06,4.4-13.71,6.31a162.45,162.45,0,0,0-16.84,4.48,136.45,136.45,0,0,0-13.77,5.13c-.87.2-1.73.42-2.6.61s-2,.46-3.08.72c0-.08.09-.16.14-.23,1.7-2.57,5.24-4.66,8.25-6.24q9.57-3,19-6.36c4-1.41,7.91-2.89,11.84-4.4C114.63,222.07,118.44,221.57,121.8,222.81Zm-.19-7.38q-4.6,1.9-9.27,3.71l-.5.19c-6.17.87-12.49,3.29-17.45,5a96.25,96.25,0,0,0-15,6.36l-3.18,1a63.67,63.67,0,0,1-9.4,2.45,14.29,14.29,0,0,1-3.06.28c-.09,0-.15-.1-.24-.14a12.58,12.58,0,0,1,1.84-1.87,96,96,0,0,1,20.12-11.66l.15,0c13.86-3,27.54-6.74,41-11.05a24,24,0,0,1,4.39.88C129.21,213.12,124.14,214.4,121.61,215.43Z"/><path class="cls-2" d="M143.2,139.65c-5,10.06-14.22,15.17-24.76,18.07a45.74,45.74,0,0,0,9.87-6.37c11.93-10.13,19.45-24.74,22.36-40a.4.4,0,0,0-.79-.17c-3.07,15.19-11.13,30.06-23.68,39.48a46.49,46.49,0,0,1-6.23,3.9A56.17,56.17,0,0,0,130.65,143c12.79-18.36,15-40.82,17.23-62.46.09-.82-1.17-1.11-1.27-.27-2.28,19-4.81,39.12-15.06,55.68A51.26,51.26,0,0,1,108,156.69a71,71,0,0,0,15.79-17.94c13.53-21.83,13.33-47.43,12.75-72.17,0-.89-1.37-.82-1.38.07-.34,35.43-10.37,82-46.6,94.14,11.21-5.28,20.4-15.07,26.66-25.53,11-18.42,13-40.31,14.42-61.24,0-.65-1.08-.75-1.15-.1-2.6,24.43-8.89,48.51-23.76,66,1.84-3.78,3.42-7.61,4.79-11.24,7.87-20.91,11.54-42.79,12.1-65.08,0-1.4-2.1-1.27-2.16.1a189.89,189.89,0,0,1-12.7,60c-3.83,9.86-8.29,19.33-15,26.89.53-1.46,1-2.93,1.52-4.4,14.12-25,17.81-55.23,21.47-83.22.06-.46-.64-.62-.71-.15C110.54,87,106.43,111,97.15,133.28c1.56-5.85,2.92-11.75,4.17-17.61a372.75,372.75,0,0,0,8-76.75c0-1.41-2.11-1.27-2.16.1a375.16,375.16,0,0,1-8.49,66.26c-1.84,8.34-4,16.62-6.35,24.82,5.82-24.85,8.7-50.55,9.81-75.78,0-.51-.75-.46-.78,0A388.18,388.18,0,0,1,94.2,111c-3.15,15.74-7.51,31.09-12.07,46.44-1.1.55-2.22,1.08-3.38,1.58.19-.69.35-1.4.53-2.1C87.77,130,93,101.84,97.69,74.14a.24.24,0,0,0-.47-.1C94.5,89.81,91,105.47,87.12,121c-.75,3-1.56,6-2.36,9,2-12.5,3.44-25.13,5.2-37.37,3.28-22.72,5.72-45.5,8.28-68.31.12-1.09-1.56-1.47-1.69-.36C93.82,46.7,90.13,69.34,86.31,91.88c-1.76,10.37-4,20.76-6.15,31.16.49-7.48,1-15,1.75-22.42q2.59-26.88,7.42-53.46a.27.27,0,0,0-.52-.11C85.44,65,82.62,83,80.47,101.17c-1,8.45-1.88,16.91-2.55,25.39-.26,3.37-.58,6.79-.84,10.22C77.56,93.67,79.58,51,86.66,8.1a.6.6,0,0,0-1.17-.24A736.66,736.66,0,0,0,73.91,85.44c.62-10.79,1.59-21.5,2.81-32,.21-1.75-2.46-2.37-2.72-.58-4.79,32.44-4.74,64.19-2.85,96.52-7.09-21.2-9-44.67-10.72-66.49A525.81,525.81,0,0,1,60.52.64c.06-.77-1.27-.89-1.37-.11a462.18,462.18,0,0,0-2.51,87.53c.88,13.21,2,26.85,4.26,40.2a174.31,174.31,0,0,1-5-17.65c-4-17.4-5.94-35.2-7.72-52.93,0-.34-.56-.32-.53,0C50,86,52.14,117,64.13,143.36q1.61,6.18,3.76,12.15A188.56,188.56,0,0,1,48.18,109C42,85.91,39.5,62.1,37.88,38.31a.42.42,0,0,0-.84,0c1.85,37.92,3.16,82,22.94,116a127.27,127.27,0,0,1-8.67-12.61,148.61,148.61,0,0,1-10.69-23.21c-5.61-15.25-9.57-31.2-13-47-.05-.22-.38-.11-.34.11,3.6,16.65,6.9,33.3,12.71,49.36,5.18,14.32,12.37,30.58,24,40.86a.63.63,0,0,0,.81,0c.6.87,1.22,1.74,1.85,2.6-15.16-10.25-23-26.15-29.82-43.11a249,249,0,0,1-16-62.6c-.07-.53-.89-.51-.84,0a248.27,248.27,0,0,0,16.82,70.85c4.92,12.14,11.21,26.07,21.76,34.52C47,158.79,39.21,147.87,34.13,135.89,27.41,120,22.83,103.07,17.36,86.75a.11.11,0,0,0-.21.07c5.35,17.91,9.6,36.92,17.54,53.91C40.37,152.9,50.3,165,63.88,168.06h-.6c-14.79-3.3-25.22-16.83-31.53-30.88-6.92-15.39-12.28-31.63-18.37-47.37a.45.45,0,0,0-.85.27c6.25,18.82,13.58,52.34,30.32,70.14a81.23,81.23,0,0,1-12.24-12.49c-10.92-13.27-16.69-30-28.41-42.59-.31-.33-.91.18-.61.53,7.56,8.89,11.49,19.64,17.12,29.72A101,101,0,0,0,38,160.1,42.67,42.67,0,0,0,42.81,164a41.36,41.36,0,0,1-12.24-8.86C18.92,143,9.59,127.68.69,113.51a.38.38,0,0,0-.64.41C9.14,130.48,18.81,150,33.72,162.19a37.75,37.75,0,0,0,9.8,5.79A66.29,66.29,0,0,1,2.46,142a.39.39,0,0,0-.66.43c14.29,22.82,40.68,34.89,66.4,29.7a37.54,37.54,0,0,0,7.31-.64,1.29,1.29,0,0,0,.95-1.64l.85-.31c1.33-.32,2.66-.68,4-1.1a46.91,46.91,0,0,0,10.93-2.65,54.73,54.73,0,0,0,9.94-1.86c17.25-2.2,34.35-7.18,42.12-23.68A.61.61,0,0,0,143.2,139.65Z"/></g></g></svg>